<svg xmlns="http://www.w3.org/2000/svg" xmlns:xlink="http://www.w3.org/1999/xlink" width="350" zoomAndPan="magnify" viewBox="0 0 262.5 74.999997" height="100" preserveAspectRatio="xMidYMid meet" version="1.0"><defs><g/></defs><g fill="#f6ca83" fill-opacity="1"><g transform="translate(0.38189, 45.147944)"><g><path d="M 3.585938 -1.960938 L 4.0625 -0.476562 L 5.449219 0.144531 L 6.40625 0 L 7.933594 0.144531 L 8.699219 0.046875 L 10.132812 0.046875 L 11.664062 -0.429688 L 12.09375 -1.816406 L 12.09375 -3.441406 L 12.1875 -4.300781 L 12.042969 -5.304688 L 12.140625 -8.363281 L 12.570312 -9.320312 L 13.480469 -9.847656 L 16.25 -9.464844 L 17.207031 -8.652344 L 17.78125 -7.695312 L 18.164062 -6.835938 L 19.167969 -5.402344 L 20.074219 -3.679688 L 20.601562 -2.964844 L 20.984375 -2.007812 L 21.507812 -1.195312 L 22.558594 -0.335938 L 24.183594 0.09375 L 27.960938 0.046875 L 28.867188 0.144531 L 30.445312 0.09375 L 31.355469 -0.335938 L 31.640625 -1.386719 L 31.117188 -2.4375 L 30.542969 -3.105469 L 30.160156 -4.015625 L 28.535156 -6.453125 L 28.105469 -7.3125 L 26.574219 -9.796875 L 26 -10.515625 L 25.953125 -11.664062 L 26.382812 -12.714844 L 27.054688 -13.429688 L 27.722656 -14.003906 L 29.585938 -17.351562 L 30.207031 -20.121094 L 30.113281 -23.132812 L 29.96875 -24.089844 L 29.109375 -26.8125 L 28.726562 -27.625 L 28.199219 -28.390625 L 25.476562 -31.257812 L 23.800781 -32.167969 L 21.988281 -32.789062 L 19.261719 -33.410156 L 17.734375 -33.457031 L 16.347656 -33.363281 L 13.480469 -33.363281 L 12.523438 -33.554688 L 11.566406 -33.554688 L 10.707031 -33.3125 L 9.75 -33.3125 L 8.792969 -33.503906 L 7.742188 -33.554688 L 4.921875 -33.3125 L 4.0625 -32.835938 L 3.488281 -31.496094 L 3.535156 -20.550781 L 3.632812 -19.597656 L 3.488281 -17.683594 L 3.535156 -16.632812 L 3.535156 -15.675781 L 3.632812 -14.769531 L 3.535156 -13.859375 L 3.488281 -9.988281 L 3.585938 -9.035156 Z M 13.480469 -17.492188 L 12.523438 -18.019531 L 12.140625 -18.785156 L 12.140625 -21.652344 L 12.042969 -22.464844 L 12.140625 -24.472656 L 12.570312 -25.378906 L 13.574219 -25.761719 L 14.53125 -25.714844 L 16.441406 -25.90625 L 17.78125 -25.617188 L 19.023438 -25.523438 L 19.929688 -25.285156 L 21.125 -23.800781 L 21.414062 -23.039062 L 21.605469 -21.796875 L 21.460938 -20.359375 L 21.03125 -19.40625 L 20.503906 -18.6875 L 19.980469 -18.257812 L 19.117188 -17.875 L 17.734375 -17.542969 L 16.824219 -17.492188 L 14.53125 -17.589844 Z M 13.480469 -17.492188 "/></g></g></g><g fill="#f6ca83" fill-opacity="1"><g transform="translate(34.266363, 45.147944)"><g><path d="M 16.632812 0.144531 L 23.46875 0.046875 L 24.472656 -0.382812 L 24.996094 -1.386719 L 24.996094 -6.214844 L 24.472656 -7.167969 L 23.46875 -7.601562 L 22.367188 -7.503906 L 21.460938 -7.648438 L 19.023438 -7.695312 L 17.445312 -7.503906 L 16.488281 -7.601562 L 15.4375 -7.550781 L 14.53125 -7.695312 L 13.480469 -7.601562 L 12.476562 -8.078125 L 12.09375 -8.9375 L 12.09375 -11.949219 L 12.523438 -12.953125 L 13.382812 -13.480469 L 14.816406 -13.527344 L 16.347656 -13.382812 L 18.164062 -13.480469 L 20.121094 -13.429688 L 21.078125 -13.527344 L 22.175781 -13.480469 L 23.132812 -13.859375 L 23.46875 -14.816406 L 23.613281 -19.117188 L 23.132812 -20.457031 L 22.035156 -21.078125 L 19.214844 -21.078125 L 18.210938 -20.984375 L 16.203125 -21.125 L 13.429688 -21.03125 L 12.425781 -21.460938 L 12.042969 -22.941406 L 12.042969 -24.425781 L 12.476562 -25.332031 L 13.527344 -25.714844 L 14.433594 -25.667969 L 15.34375 -25.859375 L 22.175781 -25.761719 L 23.085938 -25.808594 L 24.089844 -26.382812 L 24.566406 -27.242188 L 24.519531 -28.199219 L 24.566406 -29.15625 L 24.472656 -32.023438 L 24.042969 -32.933594 L 23.085938 -33.3125 L 22.082031 -33.3125 L 21.222656 -33.503906 L 17.351562 -33.457031 L 16.296875 -33.363281 L 15.34375 -33.457031 L 14.53125 -33.410156 L 13.574219 -33.503906 L 9.65625 -33.410156 L 8.699219 -33.554688 L 7.789062 -33.363281 L 6.929688 -33.457031 L 5.972656 -33.363281 L 5.019531 -33.410156 L 4.015625 -33.027344 L 3.488281 -32.023438 L 3.585938 -30.207031 L 3.441406 -28.246094 L 3.585938 -27.195312 L 3.488281 -22.511719 L 3.632812 -21.507812 L 3.535156 -20.601562 L 3.488281 -16.679688 L 3.632812 -15.820312 L 3.585938 -8.078125 L 3.488281 -7.167969 L 3.632812 -6.214844 L 3.488281 -2.914062 L 3.585938 -1.863281 L 3.96875 -0.574219 L 5.402344 0.046875 L 8.84375 0.09375 L 9.894531 0 L 10.753906 0.046875 L 12.714844 -0.09375 L 13.621094 0.09375 L 14.722656 0.144531 L 15.675781 0.046875 Z M 16.632812 0.144531 "/></g></g></g><g fill="#f6ca83" fill-opacity="1"><g transform="translate(62.368039, 45.147944)"><g><path d="M 28.199219 0.09375 L 30.015625 -0.046875 L 30.925781 0.046875 L 32.40625 0 L 33.746094 -0.238281 L 33.886719 -1.386719 L 33.554688 -2.484375 L 32.835938 -4.253906 L 31.546875 -6.738281 L 30.875 -8.507812 L 29.921875 -10.226562 L 28.105469 -14.578125 L 27.625 -15.292969 L 27.148438 -16.203125 L 26.863281 -17.253906 L 26.429688 -17.972656 L 26.144531 -18.734375 L 25.140625 -20.503906 L 24.804688 -21.507812 L 21.652344 -28.152344 L 21.363281 -29.109375 L 20.839844 -29.96875 L 20.550781 -30.828125 L 19.644531 -32.5 L 18.832031 -33.363281 L 17.253906 -33.839844 L 15.726562 -33.3125 L 14.863281 -32.5 L 14.433594 -31.6875 L 14.101562 -30.734375 L 13.667969 -30.0625 L 11.757812 -25.667969 L 11.230469 -24.949219 L 10.992188 -23.992188 L 10.46875 -23.085938 L 10.179688 -22.226562 L 5.304688 -11.996094 L 5.019531 -10.945312 L 4.539062 -10.226562 L 4.207031 -9.273438 L 3.347656 -7.742188 L 2.628906 -5.832031 L 2.101562 -5.160156 L 1.863281 -4.300781 L 0.90625 -2.390625 L 0.621094 -1.433594 L 0.859375 -0.238281 L 1.816406 0.046875 L 3.679688 -0.046875 L 4.636719 0.046875 L 7.3125 -0.046875 L 8.414062 -0.382812 L 9.320312 -1.242188 L 10.179688 -2.820312 L 11.089844 -3.726562 L 12.09375 -4.253906 L 13 -4.109375 L 15.007812 -4.300781 L 15.867188 -4.160156 L 20.550781 -4.207031 L 21.414062 -4.109375 L 22.464844 -4.253906 L 23.515625 -3.726562 L 24.425781 -2.964844 L 24.855469 -2.054688 L 25.140625 -1.195312 L 26.097656 -0.476562 L 27.195312 0 Z M 17.351562 -11.804688 L 16.394531 -11.996094 L 15.292969 -11.902344 L 14.53125 -12.234375 L 14.480469 -13.144531 L 16.730469 -18.304688 L 17.253906 -18.734375 L 17.921875 -18.355469 L 20.171875 -13.097656 L 19.980469 -12.234375 L 19.261719 -11.855469 Z M 17.351562 -11.804688 "/></g></g></g><g fill="#f6ca83" fill-opacity="1"><g transform="translate(97.78185, 45.147944)"><g><path d="M 3.632812 -1.71875 L 3.96875 -0.476562 L 4.875 0 L 5.832031 0.09375 L 7.839844 -0.046875 L 9.703125 0.046875 L 11.519531 -0.046875 L 12.425781 0.09375 L 13.480469 0 L 22.941406 0.046875 L 23.851562 -0.429688 L 24.375 -1.910156 L 24.328125 -5.785156 L 23.898438 -7.21875 L 23.039062 -7.789062 L 22.035156 -7.695312 L 21.125 -7.503906 L 20.121094 -7.648438 L 18.164062 -7.601562 L 17.207031 -7.789062 L 16.347656 -7.648438 L 14.480469 -7.742188 L 13.480469 -7.648438 L 12.523438 -8.03125 L 12.140625 -8.984375 L 12.1875 -25.1875 L 12.09375 -26.335938 L 12.1875 -28.246094 L 12.042969 -30.972656 L 12.09375 -31.878906 L 11.613281 -32.933594 L 10.660156 -33.503906 L 8.792969 -33.503906 L 7.839844 -33.3125 L 5.925781 -33.503906 L 5.019531 -33.363281 L 4.015625 -32.980469 L 3.585938 -31.929688 L 3.585938 -25.238281 L 3.488281 -24.328125 L 3.585938 -23.371094 L 3.441406 -21.605469 L 3.488281 -20.550781 L 3.585938 -19.644531 Z M 3.632812 -1.71875 "/></g></g></g><g fill="#21897e" fill-opacity="1"><g transform="translate(124.212424, 45.147944)"><g><path d="M 12.855469 0.429688 L 16.632812 0.527344 L 17.589844 0.429688 L 18.546875 0.191406 L 19.5 0.046875 L 20.457031 -0.335938 L 21.316406 -0.429688 L 22.226562 -0.859375 L 25.476562 -2.820312 L 26.863281 -4.253906 L 27.339844 -4.921875 L 27.867188 -5.972656 L 28.152344 -6.835938 L 28.4375 -7.648438 L 28.726562 -10.039062 L 28.628906 -11.566406 L 27.914062 -14.339844 L 27.386719 -15.105469 L 26.144531 -16.539062 L 25.285156 -17.300781 L 24.519531 -17.683594 L 23.660156 -18.210938 L 19.929688 -19.359375 L 18.976562 -19.5 L 18.019531 -19.546875 L 17.015625 -19.738281 L 15.628906 -19.738281 L 13.097656 -20.265625 L 11.328125 -21.125 L 10.609375 -21.796875 L 10.417969 -23.230469 L 10.660156 -24.519531 L 11.230469 -25.140625 L 11.949219 -25.667969 L 12.714844 -26.097656 L 13.574219 -26.289062 L 15.105469 -26.335938 L 16.632812 -26.144531 L 17.492188 -25.90625 L 18.355469 -25.332031 L 19.167969 -24.664062 L 19.882812 -23.707031 L 20.933594 -23.085938 L 23.179688 -23.277344 L 24.472656 -23.179688 L 25.425781 -23.179688 L 26.289062 -23.085938 L 27.195312 -23.753906 L 27.578125 -24.566406 L 27.386719 -25.476562 L 27.292969 -26.382812 L 25.953125 -28.867188 L 24.902344 -30.304688 L 21.746094 -32.5 L 19.070312 -33.410156 L 17.207031 -33.792969 L 13.527344 -33.886719 L 12.476562 -33.601562 L 11.519531 -33.554688 L 10.660156 -33.410156 L 8.84375 -32.835938 L 7.21875 -31.878906 L 4.921875 -30.304688 L 3.25 -28.054688 L 2.390625 -25.425781 L 2.246094 -23.085938 L 2.292969 -21.605469 L 2.628906 -19.691406 L 3.394531 -18.019531 L 5.160156 -15.820312 L 8.414062 -14.050781 L 10.132812 -13.480469 L 17.636719 -12.617188 L 19.359375 -11.804688 L 19.980469 -11.230469 L 20.265625 -10.039062 L 19.882812 -8.84375 L 19.261719 -8.125 L 17.636719 -7.410156 L 16.15625 -7.3125 L 15.292969 -7.167969 L 12.855469 -7.410156 L 12.042969 -7.839844 L 11.230469 -8.363281 L 9.65625 -10.085938 L 8.699219 -10.46875 L 7.839844 -10.371094 L 6.929688 -10.515625 L 3.25 -10.324219 L 2.390625 -9.941406 L 2.007812 -8.9375 L 2.152344 -7.980469 L 2.34375 -7.027344 L 2.628906 -6.164062 L 3.535156 -4.398438 L 4.207031 -3.777344 L 4.828125 -3.058594 L 6.5 -2.007812 L 7.167969 -1.289062 L 8.078125 -0.859375 L 9.035156 -0.574219 L 10.898438 0.09375 Z M 12.855469 0.429688 "/></g></g></g><g fill="#21897e" fill-opacity="1"><g transform="translate(155.420563, 45.147944)"><g><path d="M 3.632812 -1.339844 L 4.015625 -0.335938 L 5.113281 0.09375 L 6.023438 0.09375 L 7.503906 -0.046875 L 8.890625 0 L 9.894531 0.144531 L 10.898438 0.046875 L 11.949219 -0.382812 L 12.332031 -1.339844 L 12.378906 -2.292969 L 12.234375 -3.347656 L 12.332031 -4.207031 L 12.234375 -5.160156 L 12.332031 -6.070312 L 12.285156 -7.121094 L 12.378906 -8.125 L 12.234375 -11.902344 L 12.714844 -12.90625 L 13.667969 -13.480469 L 14.671875 -13.480469 L 15.535156 -13.382812 L 18.355469 -13.382812 L 19.308594 -13.480469 L 20.265625 -13.382812 L 21.175781 -13.382812 L 22.035156 -12.90625 L 22.511719 -11.949219 L 22.65625 -9.035156 L 22.511719 -8.125 L 22.703125 -4.730469 L 22.511719 -3.296875 L 22.65625 -1.433594 L 23.132812 -0.429688 L 24.089844 0.046875 L 25.046875 -0.046875 L 26.480469 0.09375 L 29.777344 0.09375 L 30.734375 -0.429688 L 31.257812 -1.339844 L 31.449219 -3.296875 L 31.449219 -10.992188 L 31.257812 -12.808594 L 31.308594 -13.765625 L 31.210938 -14.769531 L 31.210938 -15.726562 L 31.355469 -16.730469 L 31.308594 -18.546875 L 31.402344 -19.597656 L 31.257812 -24.28125 L 31.496094 -28.246094 L 31.308594 -29.15625 L 31.210938 -30.0625 L 31.402344 -31.019531 L 31.308594 -31.976562 L 30.828125 -32.933594 L 29.347656 -33.410156 L 26.910156 -33.457031 L 25.378906 -33.3125 L 24.425781 -33.3125 L 22.988281 -32.882812 L 22.609375 -31.496094 L 22.703125 -26.289062 L 22.511719 -25.476562 L 22.511719 -22.703125 L 21.988281 -21.746094 L 21.175781 -21.269531 L 19.261719 -21.269531 L 18.402344 -21.363281 L 13.765625 -21.316406 L 12.761719 -21.746094 L 12.378906 -22.65625 L 12.378906 -25.523438 L 12.476562 -26.382812 L 12.332031 -31.117188 L 12.378906 -31.929688 L 11.804688 -32.933594 L 10.324219 -33.410156 L 7.503906 -33.3125 L 6.546875 -33.410156 L 5.640625 -33.3125 L 4.160156 -32.882812 L 3.632812 -32.070312 L 3.488281 -31.019531 L 3.488281 -30.113281 L 3.585938 -29.058594 L 3.441406 -28.152344 L 3.679688 -25.285156 L 3.535156 -24.234375 L 3.632812 -23.421875 L 3.441406 -22.464844 L 3.632812 -19.546875 L 3.535156 -18.546875 L 3.535156 -15.773438 L 3.679688 -14.863281 L 3.585938 -13.382812 L 3.679688 -12.285156 L 3.535156 -10.039062 L 3.632812 -8.984375 L 3.488281 -8.03125 L 3.632812 -7.167969 L 3.535156 -6.214844 Z M 3.632812 -1.339844 "/></g></g></g><g fill="#21897e" fill-opacity="1"><g transform="translate(191.121129, 45.147944)"><g><path d="M 17.875 0.574219 L 20.550781 0.527344 L 23.421875 0.144531 L 27.003906 -1.050781 L 28.582031 -1.910156 L 29.300781 -2.484375 L 30.207031 -2.914062 L 31.546875 -4.0625 L 32.167969 -4.921875 L 32.835938 -5.59375 L 34.9375 -8.792969 L 35.65625 -10.609375 L 36.039062 -12.425781 L 36.085938 -13.289062 L 36.324219 -14.242188 L 36.375 -15.246094 L 36.5625 -16.632812 L 36.421875 -19.023438 L 36.085938 -20.984375 L 34.890625 -24.566406 L 33.984375 -26.335938 L 32.933594 -27.769531 L 31.59375 -29.25 L 30.207031 -30.445312 L 29.109375 -31.210938 L 27.675781 -31.832031 L 26.957031 -32.359375 L 23.277344 -33.503906 L 20.503906 -33.984375 L 19.214844 -34.03125 L 14.148438 -33.3125 L 10.5625 -31.976562 L 9.847656 -31.449219 L 8.984375 -31.019531 L 7.359375 -29.824219 L 5.019531 -27.101562 L 3.535156 -24.566406 L 2.820312 -22.75 L 2.007812 -19.070312 L 1.863281 -15.199219 L 2.007812 -14.195312 L 2.246094 -13.335938 L 2.34375 -12.425781 L 2.773438 -10.609375 L 4.972656 -6.261719 L 5.542969 -5.6875 L 6.164062 -4.921875 L 6.882812 -4.253906 L 7.410156 -3.632812 L 8.984375 -2.390625 L 12.714844 -0.476562 L 14.101562 0 L 15.152344 0.09375 L 16.871094 0.476562 Z M 20.550781 -7.886719 L 17.921875 -7.886719 L 16.871094 -8.03125 L 15.152344 -8.746094 L 14.386719 -9.175781 L 13.097656 -10.226562 L 12.476562 -10.898438 L 11.804688 -11.804688 L 11.566406 -12.570312 L 11.136719 -13.429688 L 10.753906 -15.199219 L 10.753906 -18.113281 L 10.992188 -18.976562 L 11.136719 -19.882812 L 11.519531 -20.742188 L 11.804688 -21.605469 L 12.953125 -23.132812 L 15.34375 -24.757812 L 15.964844 -24.996094 L 17.828125 -25.476562 L 19.167969 -25.570312 L 21.460938 -25.285156 L 22.320312 -25.09375 L 23.179688 -24.710938 L 24.664062 -23.660156 L 26.527344 -21.699219 L 27.101562 -19.882812 L 27.53125 -18.976562 L 27.675781 -18.113281 L 27.578125 -15.199219 L 27.195312 -13.429688 L 26.863281 -12.570312 L 26.335938 -11.710938 L 26.050781 -10.992188 L 25.378906 -10.226562 L 23.085938 -8.652344 L 22.226562 -8.414062 L 21.507812 -8.078125 Z M 20.550781 -7.886719 "/></g></g></g><g fill="#21897e" fill-opacity="1"><g transform="translate(230.167117, 45.147944)"><g><path d="M 3.535156 -1.480469 L 3.917969 -0.476562 L 4.921875 -0.09375 L 5.878906 0 L 8.699219 -0.046875 L 9.75 0.046875 L 10.753906 0.046875 L 11.710938 -0.476562 L 12.140625 -1.480469 L 12.1875 -3.394531 L 12.09375 -4.300781 L 12.234375 -5.160156 L 12.140625 -6.214844 L 12.140625 -7.21875 L 12.476562 -8.03125 L 13.765625 -8.507812 L 14.816406 -8.652344 L 16.25 -8.507812 L 18.734375 -8.554688 L 20.695312 -8.9375 L 23.46875 -9.75 L 25.09375 -10.753906 L 25.859375 -11.328125 L 27.292969 -12.714844 L 28.820312 -15.007812 L 29.25 -15.867188 L 29.585938 -16.730469 L 30.015625 -18.6875 L 30.113281 -19.546875 L 30.160156 -22.367188 L 29.300781 -26.097656 L 28.34375 -27.816406 L 27.722656 -28.628906 L 27.101562 -29.300781 L 26.574219 -30.015625 L 25.761719 -30.734375 L 24.328125 -31.6875 L 22.609375 -32.597656 L 21.605469 -32.789062 L 20.648438 -33.171875 L 19.789062 -33.363281 L 5.496094 -33.410156 L 4.207031 -32.980469 L 3.726562 -32.070312 L 3.632812 -31.066406 L 3.632812 -29.109375 L 3.488281 -28.246094 L 3.488281 -27.339844 L 3.632812 -26.335938 L 3.632812 -21.460938 L 3.535156 -20.503906 L 3.632812 -19.644531 L 3.535156 -18.59375 L 3.679688 -16.632812 L 3.488281 -15.34375 L 3.632812 -13.910156 L 3.535156 -13 L 3.535156 -10.992188 L 3.679688 -10.085938 L 3.535156 -8.171875 L 3.679688 -5.160156 L 3.441406 -4.207031 L 3.632812 -3.296875 L 3.488281 -2.390625 Z M 13.667969 -16.296875 L 12.761719 -16.730469 L 12.1875 -17.683594 L 12.09375 -24.328125 L 12.667969 -25.378906 L 13.621094 -25.761719 L 14.816406 -25.859375 L 18.640625 -25.667969 L 19.453125 -25.238281 L 20.171875 -24.710938 L 20.933594 -23.992188 L 21.414062 -23.179688 L 21.84375 -20.933594 L 21.316406 -18.734375 L 20.21875 -17.398438 L 19.453125 -16.871094 L 18.6875 -16.441406 L 14.769531 -16.203125 Z M 13.667969 -16.296875 "/></g></g></g><g fill="#ffffff" fill-opacity="1"><g transform="translate(2.521583, 66.421923)"><g><path d="M 1.476562 -0.613281 L 1.613281 -0.191406 L 1.996094 0 L 2.359375 0.0195312 L 3.148438 -0.0390625 L 3.550781 0 L 4.125 0 L 4.71875 -0.191406 L 4.855469 -0.554688 L 4.894531 -0.960938 L 4.816406 -1.363281 L 4.875 -2.1875 L 4.835938 -3.375 L 5.007812 -3.761719 L 5.390625 -3.953125 L 5.738281 -3.953125 L 6.082031 -3.972656 L 6.5625 -3.816406 L 6.867188 -3.492188 L 7.367188 -2.820312 L 7.503906 -2.457031 L 8.039062 -1.496094 L 8.289062 -1.132812 L 8.460938 -0.804688 L 8.691406 -0.5 L 9.074219 -0.152344 L 9.554688 -0.0390625 L 10.246094 0 L 10.667969 -0.0390625 L 11.050781 0 L 11.820312 0 L 12.242188 -0.0390625 L 12.644531 -0.132812 L 12.722656 -0.539062 L 12.472656 -1.015625 L 11.855469 -1.957031 L 11.683594 -2.285156 L 11.453125 -2.628906 L 11.261719 -2.972656 L 11.011719 -3.28125 L 10.4375 -4.277344 L 10.378906 -4.738281 L 10.589844 -5.140625 L 11.128906 -5.660156 L 11.359375 -5.984375 L 11.492188 -6.351562 L 11.703125 -6.695312 L 11.839844 -7.023438 L 12.050781 -7.75 L 12.070312 -9.265625 L 11.972656 -9.632812 L 11.914062 -9.996094 L 11.820312 -10.378906 L 11.300781 -11.433594 L 11.03125 -11.722656 L 10.859375 -12.011719 L 9.898438 -12.738281 L 9.230469 -13.085938 L 7.636719 -13.410156 L 7.15625 -13.449219 L 6.601562 -13.429688 L 6.179688 -13.449219 L 5.792969 -13.410156 L 5.371094 -13.449219 L 5.046875 -13.410156 L 3.894531 -13.449219 L 3.53125 -13.390625 L 2.742188 -13.46875 L 2.378906 -13.410156 L 1.957031 -13.429688 L 1.59375 -13.257812 L 1.4375 -12.855469 L 1.382812 -7.484375 L 1.4375 -6.925781 L 1.4375 -5.96875 L 1.402344 -5.5625 L 1.382812 -4.835938 L 1.4375 -4.414062 L 1.382812 -3.625 L 1.457031 -2.511719 L 1.417969 -2.109375 Z M 5.390625 -7.0625 L 5.066406 -7.234375 L 4.875 -7.636719 L 4.816406 -9.785156 L 5.046875 -10.167969 L 5.429688 -10.359375 L 5.738281 -10.378906 L 6.792969 -10.359375 L 7.675781 -10.246094 L 8.269531 -9.882812 L 8.460938 -9.59375 L 8.59375 -9.285156 L 8.632812 -8.730469 L 8.578125 -8.210938 L 8.421875 -7.828125 L 8.210938 -7.503906 L 7.980469 -7.273438 L 7.695312 -7.136719 L 6.199219 -7.003906 L 5.8125 -7.0625 Z M 5.390625 -7.0625 "/></g></g></g><g fill="#ffffff" fill-opacity="1"><g transform="translate(16.104412, 66.421923)"><g><path d="M 1.382812 -0.554688 L 1.632812 -0.191406 L 1.996094 0.0195312 L 6.332031 -0.0195312 L 6.675781 0.0390625 L 7.847656 -0.0195312 L 9.019531 0.0585938 L 9.382812 0.0195312 L 9.785156 -0.171875 L 9.957031 -0.539062 L 9.996094 -0.902344 L 9.976562 -2.089844 L 10.015625 -2.457031 L 9.765625 -2.839844 L 9.191406 -3.03125 L 6.65625 -3.070312 L 6.292969 -3.011719 L 5.871094 -3.050781 L 5.449219 -3.011719 L 5.046875 -3.242188 L 4.875 -3.835938 L 4.894531 -4.777344 L 5.066406 -5.179688 L 5.410156 -5.390625 L 6.160156 -5.390625 L 6.542969 -5.429688 L 7.558594 -5.371094 L 8.078125 -5.410156 L 8.480469 -5.371094 L 8.824219 -5.390625 L 9.210938 -5.601562 L 9.402344 -5.96875 L 9.441406 -7.484375 L 9.402344 -7.867188 L 9.230469 -8.230469 L 8.902344 -8.441406 L 8.136719 -8.460938 L 7.75 -8.421875 L 7.347656 -8.421875 L 6.90625 -8.460938 L 5.390625 -8.441406 L 5.066406 -8.652344 L 4.835938 -9 L 4.796875 -9.59375 L 4.988281 -10.148438 L 5.582031 -10.324219 L 9.265625 -10.339844 L 9.671875 -10.550781 L 9.882812 -10.898438 L 9.84375 -11.683594 L 9.785156 -12.050781 L 9.804688 -12.472656 L 9.863281 -12.835938 L 9.671875 -13.21875 L 9.265625 -13.390625 L 7.730469 -13.410156 L 7.386719 -13.375 L 7.003906 -13.429688 L 6.160156 -13.390625 L 5.773438 -13.429688 L 5.027344 -13.410156 L 4.679688 -13.449219 L 2.167969 -13.390625 L 1.613281 -13.257812 L 1.417969 -12.835938 L 1.457031 -12.070312 L 1.382812 -11.511719 L 1.457031 -10.535156 L 1.417969 -10.128906 L 1.457031 -9.785156 L 1.457031 -6.351562 L 1.402344 -5.949219 L 1.457031 -5.199219 L 1.417969 -4.433594 L 1.476562 -4.027344 L 1.4375 -3.605469 L 1.457031 -3.242188 L 1.402344 -2.898438 L 1.4375 -2.457031 L 1.4375 -2.070312 L 1.476562 -1.324219 L 1.457031 -0.941406 Z M 1.382812 -0.554688 "/></g></g></g><g fill="#ffffff" fill-opacity="1"><g transform="translate(27.385076, 66.421923)"><g><path d="M 0.25 -0.519531 L 0.34375 -0.113281 L 0.730469 -0.0195312 L 2.417969 -0.0195312 L 2.917969 0.0390625 L 3.359375 -0.152344 L 3.703125 -0.5 L 4.027344 -1.152344 L 4.355469 -1.515625 L 4.816406 -1.707031 L 5.199219 -1.667969 L 6.273438 -1.6875 L 6.675781 -1.632812 L 7.117188 -1.6875 L 7.464844 -1.6875 L 7.867188 -1.648438 L 8.769531 -1.6875 L 9.402344 -1.476562 L 9.804688 -1.171875 L 9.898438 -0.824219 L 10.113281 -0.480469 L 10.4375 -0.171875 L 10.9375 0.0195312 L 11.28125 -0.0195312 L 11.953125 0.0390625 L 13.144531 0 L 13.488281 -0.113281 L 13.566406 -0.519531 L 13.449219 -0.996094 L 13.316406 -1.34375 L 13.066406 -1.667969 L 12.949219 -2.054688 L 12.757812 -2.339844 L 12.644531 -2.707031 L 12.316406 -3.394531 L 12.183594 -3.761719 L 11.992188 -4.085938 L 11.722656 -4.796875 L 11.511719 -5.105469 L 11.359375 -5.488281 L 11.1875 -5.8125 L 11.050781 -6.199219 L 10.878906 -6.484375 L 10.765625 -6.867188 L 10.550781 -7.214844 L 10.398438 -7.539062 L 10.207031 -7.867188 L 10.113281 -8.230469 L 9.726562 -8.902344 L 9.613281 -9.265625 L 9.265625 -9.996094 L 9.171875 -10.304688 L 8.882812 -10.976562 L 8.5 -11.683594 L 8.191406 -12.414062 L 8.019531 -12.703125 L 7.90625 -13.066406 L 7.558594 -13.429688 L 6.90625 -13.601562 L 6.292969 -13.410156 L 5.929688 -13.066406 L 5.8125 -12.722656 L 4.988281 -10.992188 L 4.777344 -10.648438 L 3.703125 -8.230469 L 3.605469 -7.90625 L 3.394531 -7.558594 L 3.089844 -6.867188 L 2.800781 -6.371094 L 2.667969 -6.003906 L 2.398438 -5.507812 L 2.285156 -5.105469 L 2.109375 -4.796875 L 1.976562 -4.414062 L 1.4375 -3.414062 L 0.882812 -2.015625 L 0.652344 -1.707031 L 0.480469 -1.324219 Z M 6.179688 -4.738281 L 5.8125 -4.894531 L 5.757812 -5.277344 L 6.523438 -7.023438 L 6.695312 -7.328125 L 6.945312 -7.519531 L 7.175781 -7.367188 L 7.425781 -6.621094 L 7.636719 -6.292969 L 7.714844 -5.984375 L 7.90625 -5.601562 L 8.039062 -5.257812 L 8 -4.910156 L 7.675781 -4.757812 Z M 6.179688 -4.738281 "/></g></g></g><g fill="#ffffff" fill-opacity="1"><g transform="translate(41.601001, 66.421923)"><g><path d="M 1.4375 -0.554688 L 1.613281 -0.210938 L 2.226562 0.0195312 L 9.019531 -0.0195312 L 9.554688 -0.210938 L 9.765625 -0.554688 L 9.726562 -0.980469 L 9.746094 -1.363281 L 9.785156 -1.707031 L 9.726562 -2.128906 L 9.785156 -2.496094 L 9.535156 -2.917969 L 9.230469 -3.109375 L 8.808594 -3.050781 L 5.429688 -3.089844 L 5.027344 -3.261719 L 4.910156 -3.683594 L 4.929688 -4.394531 L 4.875 -4.757812 L 4.894531 -5.179688 L 4.855469 -5.5625 L 4.894531 -5.96875 L 4.875 -6.925781 L 4.929688 -7.464844 L 4.875 -7.886719 L 4.929688 -8.289062 L 4.875 -11.28125 L 4.910156 -11.703125 L 4.875 -12.644531 L 4.679688 -13.21875 L 4.183594 -13.449219 L 2.1875 -13.410156 L 1.632812 -13.199219 L 1.382812 -12.683594 L 1.496094 -11.683594 L 1.457031 -11.320312 L 1.402344 -10.917969 L 1.457031 -10.535156 L 1.496094 -10.167969 L 1.4375 -9.746094 L 1.457031 -9.382812 L 1.417969 -9 L 1.476562 -8.59375 L 1.417969 -8.25 L 1.457031 -7.867188 L 1.402344 -7.503906 L 1.457031 -6.675781 L 1.402344 -6.3125 L 1.457031 -5.546875 L 1.402344 -5.160156 L 1.417969 -4.394531 L 1.457031 -4.046875 L 1.4375 -1.707031 L 1.476562 -1.324219 L 1.402344 -0.960938 Z M 1.4375 -0.554688 "/></g></g></g><g fill="#ffffff" fill-opacity="1"><g transform="translate(52.210199, 66.421923)"><g><path d="M 1.4375 -0.554688 L 1.613281 -0.210938 L 2.226562 0.0195312 L 9.019531 -0.0195312 L 9.554688 -0.210938 L 9.765625 -0.554688 L 9.726562 -0.980469 L 9.746094 -1.363281 L 9.785156 -1.707031 L 9.726562 -2.128906 L 9.785156 -2.496094 L 9.535156 -2.917969 L 9.230469 -3.109375 L 8.808594 -3.050781 L 5.429688 -3.089844 L 5.027344 -3.261719 L 4.910156 -3.683594 L 4.929688 -4.394531 L 4.875 -4.757812 L 4.894531 -5.179688 L 4.855469 -5.5625 L 4.894531 -5.96875 L 4.875 -6.925781 L 4.929688 -7.464844 L 4.875 -7.886719 L 4.929688 -8.289062 L 4.875 -11.28125 L 4.910156 -11.703125 L 4.875 -12.644531 L 4.679688 -13.21875 L 4.183594 -13.449219 L 2.1875 -13.410156 L 1.632812 -13.199219 L 1.382812 -12.683594 L 1.496094 -11.683594 L 1.457031 -11.320312 L 1.402344 -10.917969 L 1.457031 -10.535156 L 1.496094 -10.167969 L 1.4375 -9.746094 L 1.457031 -9.382812 L 1.417969 -9 L 1.476562 -8.59375 L 1.417969 -8.25 L 1.457031 -7.867188 L 1.402344 -7.503906 L 1.457031 -6.675781 L 1.402344 -6.3125 L 1.457031 -5.546875 L 1.402344 -5.160156 L 1.417969 -4.394531 L 1.457031 -4.046875 L 1.4375 -1.707031 L 1.476562 -1.324219 L 1.402344 -0.960938 Z M 1.4375 -0.554688 "/></g></g></g><g fill="#ffffff" fill-opacity="1"><g transform="translate(62.819398, 66.421923)"><g><path d="M 4.414062 -0.539062 L 4.625 -0.210938 L 4.988281 -0.0195312 L 5.679688 0.0195312 L 6.0625 -0.0195312 L 6.464844 0 L 7.003906 -0.0195312 L 7.578125 -0.210938 L 7.769531 -0.59375 L 7.769531 -0.921875 L 7.730469 -1.324219 L 7.75 -1.6875 L 7.730469 -2.035156 L 7.828125 -3.203125 L 7.769531 -3.605469 L 7.828125 -4.71875 L 7.75 -5.066406 L 7.847656 -5.621094 L 8.519531 -6.792969 L 8.671875 -7.15625 L 8.882812 -7.484375 L 9.363281 -8.117188 L 11.570312 -11.761719 L 11.800781 -12.050781 L 11.933594 -12.394531 L 12.203125 -12.855469 L 12.144531 -13.316406 L 11.78125 -13.46875 L 11.398438 -13.410156 L 10.648438 -13.46875 L 10.246094 -13.410156 L 9.515625 -13.410156 L 9.152344 -13.449219 L 8.671875 -13.257812 L 8.269531 -12.894531 L 7.941406 -12.242188 L 7.695312 -11.875 L 7.578125 -11.511719 L 7.136719 -10.878906 L 6.851562 -10.1875 L 6.214844 -9.152344 L 5.949219 -9.113281 L 5.507812 -9.804688 L 5.332031 -10.148438 L 5.21875 -10.535156 L 4.257812 -12.222656 L 4.046875 -12.546875 L 3.894531 -12.933594 L 3.472656 -13.238281 L 2.992188 -13.449219 L 0.460938 -13.410156 L 0.0390625 -13.296875 L 0 -12.875 L 0.191406 -12.414062 L 2.265625 -9.132812 L 2.417969 -8.808594 L 4.125 -6.121094 L 4.277344 -5.621094 L 4.375 -5.066406 L 4.355469 -3.550781 L 4.394531 -3.164062 L 4.414062 -2.800781 L 4.375 -2.457031 L 4.355469 -1.726562 L 4.453125 -0.941406 Z M 4.414062 -0.539062 "/></g></g></g><g fill="#ffffff" fill-opacity="1"><g transform="translate(75.308699, 66.421923)"><g/></g></g><g fill="#ffffff" fill-opacity="1"><g transform="translate(80.79558, 66.421923)"><g><path d="M 1.476562 -0.613281 L 1.613281 -0.191406 L 1.996094 0 L 2.359375 0.0195312 L 3.148438 -0.0390625 L 3.550781 0 L 4.125 0 L 4.71875 -0.191406 L 4.855469 -0.554688 L 4.894531 -0.960938 L 4.816406 -1.363281 L 4.875 -2.1875 L 4.835938 -3.375 L 5.007812 -3.761719 L 5.390625 -3.953125 L 5.738281 -3.953125 L 6.082031 -3.972656 L 6.5625 -3.816406 L 6.867188 -3.492188 L 7.367188 -2.820312 L 7.503906 -2.457031 L 8.039062 -1.496094 L 8.289062 -1.132812 L 8.460938 -0.804688 L 8.691406 -0.5 L 9.074219 -0.152344 L 9.554688 -0.0390625 L 10.246094 0 L 10.667969 -0.0390625 L 11.050781 0 L 11.820312 0 L 12.242188 -0.0390625 L 12.644531 -0.132812 L 12.722656 -0.539062 L 12.472656 -1.015625 L 11.855469 -1.957031 L 11.683594 -2.285156 L 11.453125 -2.628906 L 11.261719 -2.972656 L 11.011719 -3.28125 L 10.4375 -4.277344 L 10.378906 -4.738281 L 10.589844 -5.140625 L 11.128906 -5.660156 L 11.359375 -5.984375 L 11.492188 -6.351562 L 11.703125 -6.695312 L 11.839844 -7.023438 L 12.050781 -7.75 L 12.070312 -9.265625 L 11.972656 -9.632812 L 11.914062 -9.996094 L 11.820312 -10.378906 L 11.300781 -11.433594 L 11.03125 -11.722656 L 10.859375 -12.011719 L 9.898438 -12.738281 L 9.230469 -13.085938 L 7.636719 -13.410156 L 7.15625 -13.449219 L 6.601562 -13.429688 L 6.179688 -13.449219 L 5.792969 -13.410156 L 5.371094 -13.449219 L 5.046875 -13.410156 L 3.894531 -13.449219 L 3.53125 -13.390625 L 2.742188 -13.46875 L 2.378906 -13.410156 L 1.957031 -13.429688 L 1.59375 -13.257812 L 1.4375 -12.855469 L 1.382812 -7.484375 L 1.4375 -6.925781 L 1.4375 -5.96875 L 1.402344 -5.5625 L 1.382812 -4.835938 L 1.4375 -4.414062 L 1.382812 -3.625 L 1.457031 -2.511719 L 1.417969 -2.109375 Z M 5.390625 -7.0625 L 5.066406 -7.234375 L 4.875 -7.636719 L 4.816406 -9.785156 L 5.046875 -10.167969 L 5.429688 -10.359375 L 5.738281 -10.378906 L 6.792969 -10.359375 L 7.675781 -10.246094 L 8.269531 -9.882812 L 8.460938 -9.59375 L 8.59375 -9.285156 L 8.632812 -8.730469 L 8.578125 -8.210938 L 8.421875 -7.828125 L 8.210938 -7.503906 L 7.980469 -7.273438 L 7.695312 -7.136719 L 6.199219 -7.003906 L 5.8125 -7.0625 Z M 5.390625 -7.0625 "/></g></g></g><g fill="#ffffff" fill-opacity="1"><g transform="translate(94.378408, 66.421923)"><g><path d="M 1.382812 -0.554688 L 1.632812 -0.191406 L 1.996094 0.0195312 L 6.332031 -0.0195312 L 6.675781 0.0390625 L 7.847656 -0.0195312 L 9.019531 0.0585938 L 9.382812 0.0195312 L 9.785156 -0.171875 L 9.957031 -0.539062 L 9.996094 -0.902344 L 9.976562 -2.089844 L 10.015625 -2.457031 L 9.765625 -2.839844 L 9.191406 -3.03125 L 6.65625 -3.070312 L 6.292969 -3.011719 L 5.871094 -3.050781 L 5.449219 -3.011719 L 5.046875 -3.242188 L 4.875 -3.835938 L 4.894531 -4.777344 L 5.066406 -5.179688 L 5.410156 -5.390625 L 6.160156 -5.390625 L 6.542969 -5.429688 L 7.558594 -5.371094 L 8.078125 -5.410156 L 8.480469 -5.371094 L 8.824219 -5.390625 L 9.210938 -5.601562 L 9.402344 -5.96875 L 9.441406 -7.484375 L 9.402344 -7.867188 L 9.230469 -8.230469 L 8.902344 -8.441406 L 8.136719 -8.460938 L 7.75 -8.421875 L 7.347656 -8.421875 L 6.90625 -8.460938 L 5.390625 -8.441406 L 5.066406 -8.652344 L 4.835938 -9 L 4.796875 -9.59375 L 4.988281 -10.148438 L 5.582031 -10.324219 L 9.265625 -10.339844 L 9.671875 -10.550781 L 9.882812 -10.898438 L 9.84375 -11.683594 L 9.785156 -12.050781 L 9.804688 -12.472656 L 9.863281 -12.835938 L 9.671875 -13.21875 L 9.265625 -13.390625 L 7.730469 -13.410156 L 7.386719 -13.375 L 7.003906 -13.429688 L 6.160156 -13.390625 L 5.773438 -13.429688 L 5.027344 -13.410156 L 4.679688 -13.449219 L 2.167969 -13.390625 L 1.613281 -13.257812 L 1.417969 -12.835938 L 1.457031 -12.070312 L 1.382812 -11.511719 L 1.457031 -10.535156 L 1.417969 -10.128906 L 1.457031 -9.785156 L 1.457031 -6.351562 L 1.402344 -5.949219 L 1.457031 -5.199219 L 1.417969 -4.433594 L 1.476562 -4.027344 L 1.4375 -3.605469 L 1.457031 -3.242188 L 1.402344 -2.898438 L 1.4375 -2.457031 L 1.4375 -2.070312 L 1.476562 -1.324219 L 1.457031 -0.941406 Z M 1.382812 -0.554688 "/></g></g></g><g fill="#ffffff" fill-opacity="1"><g transform="translate(105.659075, 66.421923)"><g><path d="M 0.25 -0.519531 L 0.34375 -0.113281 L 0.730469 -0.0195312 L 2.417969 -0.0195312 L 2.917969 0.0390625 L 3.359375 -0.152344 L 3.703125 -0.5 L 4.027344 -1.152344 L 4.355469 -1.515625 L 4.816406 -1.707031 L 5.199219 -1.667969 L 6.273438 -1.6875 L 6.675781 -1.632812 L 7.117188 -1.6875 L 7.464844 -1.6875 L 7.867188 -1.648438 L 8.769531 -1.6875 L 9.402344 -1.476562 L 9.804688 -1.171875 L 9.898438 -0.824219 L 10.113281 -0.480469 L 10.4375 -0.171875 L 10.9375 0.0195312 L 11.28125 -0.0195312 L 11.953125 0.0390625 L 13.144531 0 L 13.488281 -0.113281 L 13.566406 -0.519531 L 13.449219 -0.996094 L 13.316406 -1.34375 L 13.066406 -1.667969 L 12.949219 -2.054688 L 12.757812 -2.339844 L 12.644531 -2.707031 L 12.316406 -3.394531 L 12.183594 -3.761719 L 11.992188 -4.085938 L 11.722656 -4.796875 L 11.511719 -5.105469 L 11.359375 -5.488281 L 11.1875 -5.8125 L 11.050781 -6.199219 L 10.878906 -6.484375 L 10.765625 -6.867188 L 10.550781 -7.214844 L 10.398438 -7.539062 L 10.207031 -7.867188 L 10.113281 -8.230469 L 9.726562 -8.902344 L 9.613281 -9.265625 L 9.265625 -9.996094 L 9.171875 -10.304688 L 8.882812 -10.976562 L 8.5 -11.683594 L 8.191406 -12.414062 L 8.019531 -12.703125 L 7.90625 -13.066406 L 7.558594 -13.429688 L 6.90625 -13.601562 L 6.292969 -13.410156 L 5.929688 -13.066406 L 5.8125 -12.722656 L 4.988281 -10.992188 L 4.777344 -10.648438 L 3.703125 -8.230469 L 3.605469 -7.90625 L 3.394531 -7.558594 L 3.089844 -6.867188 L 2.800781 -6.371094 L 2.667969 -6.003906 L 2.398438 -5.507812 L 2.285156 -5.105469 L 2.109375 -4.796875 L 1.976562 -4.414062 L 1.4375 -3.414062 L 0.882812 -2.015625 L 0.652344 -1.707031 L 0.480469 -1.324219 Z M 6.179688 -4.738281 L 5.8125 -4.894531 L 5.757812 -5.277344 L 6.523438 -7.023438 L 6.695312 -7.328125 L 6.945312 -7.519531 L 7.175781 -7.367188 L 7.425781 -6.621094 L 7.636719 -6.292969 L 7.714844 -5.984375 L 7.90625 -5.601562 L 8.039062 -5.257812 L 8 -4.910156 L 7.675781 -4.757812 Z M 6.179688 -4.738281 "/></g></g></g><g fill="#ffffff" fill-opacity="1"><g transform="translate(119.874998, 66.421923)"><g><path d="M 1.4375 -0.554688 L 1.613281 -0.210938 L 2.226562 0.0195312 L 9.019531 -0.0195312 L 9.554688 -0.210938 L 9.765625 -0.554688 L 9.726562 -0.980469 L 9.746094 -1.363281 L 9.785156 -1.707031 L 9.726562 -2.128906 L 9.785156 -2.496094 L 9.535156 -2.917969 L 9.230469 -3.109375 L 8.808594 -3.050781 L 5.429688 -3.089844 L 5.027344 -3.261719 L 4.910156 -3.683594 L 4.929688 -4.394531 L 4.875 -4.757812 L 4.894531 -5.179688 L 4.855469 -5.5625 L 4.894531 -5.96875 L 4.875 -6.925781 L 4.929688 -7.464844 L 4.875 -7.886719 L 4.929688 -8.289062 L 4.875 -11.28125 L 4.910156 -11.703125 L 4.875 -12.644531 L 4.679688 -13.21875 L 4.183594 -13.449219 L 2.1875 -13.410156 L 1.632812 -13.199219 L 1.382812 -12.683594 L 1.496094 -11.683594 L 1.457031 -11.320312 L 1.402344 -10.917969 L 1.457031 -10.535156 L 1.496094 -10.167969 L 1.4375 -9.746094 L 1.457031 -9.382812 L 1.417969 -9 L 1.476562 -8.59375 L 1.417969 -8.25 L 1.457031 -7.867188 L 1.402344 -7.503906 L 1.457031 -6.675781 L 1.402344 -6.3125 L 1.457031 -5.546875 L 1.402344 -5.160156 L 1.417969 -4.394531 L 1.457031 -4.046875 L 1.4375 -1.707031 L 1.476562 -1.324219 L 1.402344 -0.960938 Z M 1.4375 -0.554688 "/></g></g></g><g fill="#ffffff" fill-opacity="1"><g transform="translate(130.484202, 66.421923)"><g><path d="M 1.707031 1.496094 L 1.859375 1.707031 L 2.089844 1.707031 L 2.320312 1.746094 L 3.070312 1.726562 L 3.300781 1.746094 L 3.644531 1.515625 L 3.972656 0.34375 L 4.105469 0.132812 L 4.183594 -0.078125 L 4.203125 -0.289062 L 4.335938 -0.554688 L 4.507812 -1.207031 L 4.546875 -1.6875 L 4.507812 -1.917969 L 4.316406 -2.359375 L 4.066406 -2.722656 L 3.875 -2.878906 L 3.683594 -2.953125 L 3.492188 -3.109375 L 2.820312 -3.261719 L 2.359375 -3.261719 L 2.128906 -3.203125 L 1.9375 -3.164062 L 1.535156 -2.972656 L 1.34375 -2.859375 L 1.035156 -2.53125 L 0.921875 -2.339844 L 0.84375 -2.128906 L 0.75 -1.707031 L 0.710938 -1.226562 L 0.804688 -0.996094 L 0.84375 -0.804688 L 1.09375 -0.382812 L 1.226562 -0.210938 L 1.4375 -0.0585938 L 1.667969 0.0585938 L 1.859375 0.132812 L 2.015625 0.402344 L 1.917969 0.652344 L 1.84375 1.09375 L 1.726562 1.265625 Z M 1.707031 1.496094 "/></g></g></g><g fill="#ffffff" fill-opacity="1"><g transform="translate(136.220485, 66.421923)"><g/></g></g><g fill="#ffffff" fill-opacity="1"><g transform="translate(141.707362, 66.421923)"><g><path d="M 4.679688 -0.382812 L 4.96875 -0.0195312 L 5.390625 0.113281 L 6.140625 0.113281 L 6.582031 -0.0390625 L 6.886719 -0.421875 L 7.234375 -1.09375 L 7.503906 -1.859375 L 7.65625 -2.167969 L 7.75 -2.550781 L 8.519531 -4.375 L 8.59375 -4.699219 L 8.941406 -5.449219 L 9.054688 -5.792969 L 9.210938 -5.8125 L 9.402344 -5.429688 L 9.496094 -5.105469 L 9.6875 -4.738281 L 9.863281 -4.375 L 9.957031 -3.992188 L 10.265625 -3.300781 L 10.378906 -2.9375 L 10.667969 -2.226562 L 10.878906 -1.84375 L 11.011719 -1.496094 L 11.089844 -1.132812 L 11.378906 -0.441406 L 11.722656 -0.0195312 L 12.164062 0.152344 L 12.816406 0.113281 L 13.296875 -0.0585938 L 13.621094 -0.402344 L 13.699219 -0.765625 L 14.042969 -1.476562 L 14.253906 -2.226562 L 14.5625 -2.898438 L 14.8125 -3.664062 L 15.003906 -4.011719 L 15.082031 -4.375 L 15.234375 -4.777344 L 15.386719 -5.332031 L 15.808594 -6.214844 L 16.25 -7.636719 L 16.460938 -8 L 16.652344 -8.710938 L 16.828125 -9.09375 L 16.902344 -9.460938 L 17.09375 -9.804688 L 17.441406 -10.898438 L 17.652344 -11.222656 L 18.152344 -12.835938 L 18.074219 -13.296875 L 17.480469 -13.449219 L 15.386719 -13.410156 L 15.042969 -13.429688 L 14.601562 -13.21875 L 14.3125 -12.875 L 14.21875 -12.492188 L 14.042969 -12.164062 L 13.71875 -11.03125 L 13.546875 -10.648438 L 13.449219 -10.304688 L 13.21875 -9.726562 L 12.375 -6.410156 L 12.203125 -6.445312 L 12.144531 -6.792969 L 11.933594 -7.117188 L 11.875 -7.484375 L 11.1875 -9.324219 L 11.109375 -9.6875 L 10.9375 -10.074219 L 10.878906 -10.457031 L 10.074219 -12.664062 L 9.785156 -13.046875 L 9.285156 -13.21875 L 8.921875 -13.238281 L 8.5 -13.027344 L 8.269531 -12.644531 L 7.925781 -11.894531 L 7.75 -11.148438 L 7.214844 -9.746094 L 7.097656 -9.324219 L 6.675781 -8.25 L 6.621094 -7.886719 L 6.484375 -7.519531 L 6.273438 -7.117188 L 6.214844 -6.792969 L 6.003906 -6.410156 L 5.890625 -6.390625 L 4.796875 -10.628906 L 4.605469 -10.992188 L 4.316406 -11.742188 L 4.242188 -12.144531 L 4.125 -12.492188 L 4.027344 -12.875 L 3.722656 -13.21875 L 3.242188 -13.449219 L 2.917969 -13.410156 L 1.707031 -13.429688 L 1.402344 -13.390625 L 0.671875 -13.390625 L 0.269531 -13.257812 L 0.171875 -12.816406 L 0.269531 -12.316406 L 0.441406 -11.953125 L 0.671875 -11.242188 L 0.84375 -10.898438 L 0.941406 -10.496094 L 1.132812 -10.167969 L 1.496094 -9.074219 L 1.667969 -8.710938 L 1.765625 -8.367188 L 1.9375 -7.980469 L 2.015625 -7.636719 L 2.457031 -6.582031 L 2.511719 -6.214844 L 2.707031 -5.8125 L 2.761719 -5.449219 L 4.183594 -1.859375 L 4.375 -1.113281 Z M 4.679688 -0.382812 "/></g></g></g><g fill="#ffffff" fill-opacity="1"><g transform="translate(160.2974, 66.421923)"><g><path d="M 1.382812 -0.554688 L 1.632812 -0.191406 L 1.996094 0.0195312 L 6.332031 -0.0195312 L 6.675781 0.0390625 L 7.847656 -0.0195312 L 9.019531 0.0585938 L 9.382812 0.0195312 L 9.785156 -0.171875 L 9.957031 -0.539062 L 9.996094 -0.902344 L 9.976562 -2.089844 L 10.015625 -2.457031 L 9.765625 -2.839844 L 9.191406 -3.03125 L 6.65625 -3.070312 L 6.292969 -3.011719 L 5.871094 -3.050781 L 5.449219 -3.011719 L 5.046875 -3.242188 L 4.875 -3.835938 L 4.894531 -4.777344 L 5.066406 -5.179688 L 5.410156 -5.390625 L 6.160156 -5.390625 L 6.542969 -5.429688 L 7.558594 -5.371094 L 8.078125 -5.410156 L 8.480469 -5.371094 L 8.824219 -5.390625 L 9.210938 -5.601562 L 9.402344 -5.96875 L 9.441406 -7.484375 L 9.402344 -7.867188 L 9.230469 -8.230469 L 8.902344 -8.441406 L 8.136719 -8.460938 L 7.75 -8.421875 L 7.347656 -8.421875 L 6.90625 -8.460938 L 5.390625 -8.441406 L 5.066406 -8.652344 L 4.835938 -9 L 4.796875 -9.59375 L 4.988281 -10.148438 L 5.582031 -10.324219 L 9.265625 -10.339844 L 9.671875 -10.550781 L 9.882812 -10.898438 L 9.84375 -11.683594 L 9.785156 -12.050781 L 9.804688 -12.472656 L 9.863281 -12.835938 L 9.671875 -13.21875 L 9.265625 -13.390625 L 7.730469 -13.410156 L 7.386719 -13.375 L 7.003906 -13.429688 L 6.160156 -13.390625 L 5.773438 -13.429688 L 5.027344 -13.410156 L 4.679688 -13.449219 L 2.167969 -13.390625 L 1.613281 -13.257812 L 1.417969 -12.835938 L 1.457031 -12.070312 L 1.382812 -11.511719 L 1.457031 -10.535156 L 1.417969 -10.128906 L 1.457031 -9.785156 L 1.457031 -6.351562 L 1.402344 -5.949219 L 1.457031 -5.199219 L 1.417969 -4.433594 L 1.476562 -4.027344 L 1.4375 -3.605469 L 1.457031 -3.242188 L 1.402344 -2.898438 L 1.4375 -2.457031 L 1.4375 -2.070312 L 1.476562 -1.324219 L 1.457031 -0.941406 Z M 1.382812 -0.554688 "/></g></g></g><g fill="#ffffff" fill-opacity="1"><g transform="translate(171.578067, 66.421923)"><g/></g></g><g fill="#ffffff" fill-opacity="1"><g transform="translate(177.064944, 66.421923)"><g><path d="M 5.5625 0.152344 L 6.121094 0.210938 L 6.734375 0.191406 L 8.613281 -0.171875 L 9.613281 -0.710938 L 10.226562 -1.132812 L 10.765625 -1.746094 L 11.148438 -2.359375 L 11.300781 -2.707031 L 11.417969 -3.089844 L 11.472656 -3.433594 L 11.492188 -4.625 L 11.433594 -5.007812 L 11.339844 -5.371094 L 10.957031 -6.082031 L 10.496094 -6.675781 L 10.167969 -6.945312 L 9.152344 -7.40625 L 7.578125 -7.789062 L 5.640625 -8.039062 L 4.835938 -8.328125 L 4.546875 -8.480469 L 4.242188 -8.789062 L 4.222656 -9.304688 L 4.277344 -9.804688 L 4.488281 -10.074219 L 4.816406 -10.324219 L 5.085938 -10.4375 L 5.429688 -10.515625 L 6.65625 -10.550781 L 7.078125 -10.398438 L 7.367188 -10.167969 L 8 -9.496094 L 8.59375 -9.304688 L 9.863281 -9.265625 L 10.207031 -9.304688 L 10.570312 -9.265625 L 10.9375 -9.496094 L 11.109375 -9.863281 L 10.957031 -10.609375 L 10.648438 -11.300781 L 10.398438 -11.609375 L 10.207031 -11.914062 L 9.957031 -12.203125 L 8.730469 -13.046875 L 7.675781 -13.410156 L 7.273438 -13.488281 L 6.925781 -13.527344 L 6.503906 -13.621094 L 5.429688 -13.601562 L 3.914062 -13.296875 L 3.570312 -13.160156 L 3.261719 -12.96875 L 2.953125 -12.855469 L 2.570312 -12.625 L 2.300781 -12.375 L 1.957031 -12.144531 L 1.746094 -11.820312 L 1.496094 -11.570312 L 1.363281 -11.222656 L 1.171875 -10.917969 L 0.902344 -9.804688 L 0.921875 -8.519531 L 1.054688 -7.980469 L 1.304688 -7.308594 L 1.785156 -6.675781 L 2.320312 -6.179688 L 2.992188 -5.773438 L 4.085938 -5.410156 L 4.777344 -5.257812 L 6.351562 -5.140625 L 6.695312 -5.085938 L 7.078125 -5.066406 L 7.769531 -4.777344 L 8.039062 -4.546875 L 8.136719 -4.046875 L 8.019531 -3.550781 L 7.714844 -3.28125 L 7.40625 -3.109375 L 6.695312 -2.898438 L 6.160156 -2.878906 L 5.582031 -2.917969 L 5.140625 -3.03125 L 4.855469 -3.164062 L 4.507812 -3.375 L 4.222656 -3.644531 L 3.933594 -4.027344 L 3.550781 -4.183594 L 2.089844 -4.222656 L 1.707031 -4.183594 L 1.324219 -4.203125 L 0.941406 -4.027344 L 0.804688 -3.625 L 0.84375 -3.203125 L 0.921875 -2.859375 L 1.226562 -2.089844 L 1.707031 -1.496094 L 2.265625 -0.941406 L 2.589844 -0.730469 L 3.972656 -0.0976562 L 4.394531 -0.0390625 L 4.757812 0.0976562 Z M 5.5625 0.152344 "/></g></g></g><g fill="#ffffff" fill-opacity="1"><g transform="translate(189.592618, 66.421923)"><g><path d="M 4.679688 -0.382812 L 4.96875 -0.0195312 L 5.390625 0.113281 L 6.140625 0.113281 L 6.582031 -0.0390625 L 6.886719 -0.421875 L 7.234375 -1.09375 L 7.503906 -1.859375 L 7.65625 -2.167969 L 7.75 -2.550781 L 8.519531 -4.375 L 8.59375 -4.699219 L 8.941406 -5.449219 L 9.054688 -5.792969 L 9.210938 -5.8125 L 9.402344 -5.429688 L 9.496094 -5.105469 L 9.6875 -4.738281 L 9.863281 -4.375 L 9.957031 -3.992188 L 10.265625 -3.300781 L 10.378906 -2.9375 L 10.667969 -2.226562 L 10.878906 -1.84375 L 11.011719 -1.496094 L 11.089844 -1.132812 L 11.378906 -0.441406 L 11.722656 -0.0195312 L 12.164062 0.152344 L 12.816406 0.113281 L 13.296875 -0.0585938 L 13.621094 -0.402344 L 13.699219 -0.765625 L 14.042969 -1.476562 L 14.253906 -2.226562 L 14.5625 -2.898438 L 14.8125 -3.664062 L 15.003906 -4.011719 L 15.082031 -4.375 L 15.234375 -4.777344 L 15.386719 -5.332031 L 15.808594 -6.214844 L 16.25 -7.636719 L 16.460938 -8 L 16.652344 -8.710938 L 16.828125 -9.09375 L 16.902344 -9.460938 L 17.09375 -9.804688 L 17.441406 -10.898438 L 17.652344 -11.222656 L 18.152344 -12.835938 L 18.074219 -13.296875 L 17.480469 -13.449219 L 15.386719 -13.410156 L 15.042969 -13.429688 L 14.601562 -13.21875 L 14.3125 -12.875 L 14.21875 -12.492188 L 14.042969 -12.164062 L 13.71875 -11.03125 L 13.546875 -10.648438 L 13.449219 -10.304688 L 13.21875 -9.726562 L 12.375 -6.410156 L 12.203125 -6.445312 L 12.144531 -6.792969 L 11.933594 -7.117188 L 11.875 -7.484375 L 11.1875 -9.324219 L 11.109375 -9.6875 L 10.9375 -10.074219 L 10.878906 -10.457031 L 10.074219 -12.664062 L 9.785156 -13.046875 L 9.285156 -13.21875 L 8.921875 -13.238281 L 8.5 -13.027344 L 8.269531 -12.644531 L 7.925781 -11.894531 L 7.75 -11.148438 L 7.214844 -9.746094 L 7.097656 -9.324219 L 6.675781 -8.25 L 6.621094 -7.886719 L 6.484375 -7.519531 L 6.273438 -7.117188 L 6.214844 -6.792969 L 6.003906 -6.410156 L 5.890625 -6.390625 L 4.796875 -10.628906 L 4.605469 -10.992188 L 4.316406 -11.742188 L 4.242188 -12.144531 L 4.125 -12.492188 L 4.027344 -12.875 L 3.722656 -13.21875 L 3.242188 -13.449219 L 2.917969 -13.410156 L 1.707031 -13.429688 L 1.402344 -13.390625 L 0.671875 -13.390625 L 0.269531 -13.257812 L 0.171875 -12.816406 L 0.269531 -12.316406 L 0.441406 -11.953125 L 0.671875 -11.242188 L 0.84375 -10.898438 L 0.941406 -10.496094 L 1.132812 -10.167969 L 1.496094 -9.074219 L 1.667969 -8.710938 L 1.765625 -8.367188 L 1.9375 -7.980469 L 2.015625 -7.636719 L 2.457031 -6.582031 L 2.511719 -6.214844 L 2.707031 -5.8125 L 2.761719 -5.449219 L 4.183594 -1.859375 L 4.375 -1.113281 Z M 4.679688 -0.382812 "/></g></g></g><g fill="#ffffff" fill-opacity="1"><g transform="translate(208.182666, 66.421923)"><g><path d="M 1.382812 -0.554688 L 1.632812 -0.191406 L 1.996094 0.0195312 L 6.332031 -0.0195312 L 6.675781 0.0390625 L 7.847656 -0.0195312 L 9.019531 0.0585938 L 9.382812 0.0195312 L 9.785156 -0.171875 L 9.957031 -0.539062 L 9.996094 -0.902344 L 9.976562 -2.089844 L 10.015625 -2.457031 L 9.765625 -2.839844 L 9.191406 -3.03125 L 6.65625 -3.070312 L 6.292969 -3.011719 L 5.871094 -3.050781 L 5.449219 -3.011719 L 5.046875 -3.242188 L 4.875 -3.835938 L 4.894531 -4.777344 L 5.066406 -5.179688 L 5.410156 -5.390625 L 6.160156 -5.390625 L 6.542969 -5.429688 L 7.558594 -5.371094 L 8.078125 -5.410156 L 8.480469 -5.371094 L 8.824219 -5.390625 L 9.210938 -5.601562 L 9.402344 -5.96875 L 9.441406 -7.484375 L 9.402344 -7.867188 L 9.230469 -8.230469 L 8.902344 -8.441406 L 8.136719 -8.460938 L 7.75 -8.421875 L 7.347656 -8.421875 L 6.90625 -8.460938 L 5.390625 -8.441406 L 5.066406 -8.652344 L 4.835938 -9 L 4.796875 -9.59375 L 4.988281 -10.148438 L 5.582031 -10.324219 L 9.265625 -10.339844 L 9.671875 -10.550781 L 9.882812 -10.898438 L 9.84375 -11.683594 L 9.785156 -12.050781 L 9.804688 -12.472656 L 9.863281 -12.835938 L 9.671875 -13.21875 L 9.265625 -13.390625 L 7.730469 -13.410156 L 7.386719 -13.375 L 7.003906 -13.429688 L 6.160156 -13.390625 L 5.773438 -13.429688 L 5.027344 -13.410156 L 4.679688 -13.449219 L 2.167969 -13.390625 L 1.613281 -13.257812 L 1.417969 -12.835938 L 1.457031 -12.070312 L 1.382812 -11.511719 L 1.457031 -10.535156 L 1.417969 -10.128906 L 1.457031 -9.785156 L 1.457031 -6.351562 L 1.402344 -5.949219 L 1.457031 -5.199219 L 1.417969 -4.433594 L 1.476562 -4.027344 L 1.4375 -3.605469 L 1.457031 -3.242188 L 1.402344 -2.898438 L 1.4375 -2.457031 L 1.4375 -2.070312 L 1.476562 -1.324219 L 1.457031 -0.941406 Z M 1.382812 -0.554688 "/></g></g></g><g fill="#ffffff" fill-opacity="1"><g transform="translate(219.463333, 66.421923)"><g><path d="M 0.25 -0.519531 L 0.34375 -0.113281 L 0.730469 -0.0195312 L 2.417969 -0.0195312 L 2.917969 0.0390625 L 3.359375 -0.152344 L 3.703125 -0.5 L 4.027344 -1.152344 L 4.355469 -1.515625 L 4.816406 -1.707031 L 5.199219 -1.667969 L 6.273438 -1.6875 L 6.675781 -1.632812 L 7.117188 -1.6875 L 7.464844 -1.6875 L 7.867188 -1.648438 L 8.769531 -1.6875 L 9.402344 -1.476562 L 9.804688 -1.171875 L 9.898438 -0.824219 L 10.113281 -0.480469 L 10.4375 -0.171875 L 10.9375 0.0195312 L 11.28125 -0.0195312 L 11.953125 0.0390625 L 13.144531 0 L 13.488281 -0.113281 L 13.566406 -0.519531 L 13.449219 -0.996094 L 13.316406 -1.34375 L 13.066406 -1.667969 L 12.949219 -2.054688 L 12.757812 -2.339844 L 12.644531 -2.707031 L 12.316406 -3.394531 L 12.183594 -3.761719 L 11.992188 -4.085938 L 11.722656 -4.796875 L 11.511719 -5.105469 L 11.359375 -5.488281 L 11.1875 -5.8125 L 11.050781 -6.199219 L 10.878906 -6.484375 L 10.765625 -6.867188 L 10.550781 -7.214844 L 10.398438 -7.539062 L 10.207031 -7.867188 L 10.113281 -8.230469 L 9.726562 -8.902344 L 9.613281 -9.265625 L 9.265625 -9.996094 L 9.171875 -10.304688 L 8.882812 -10.976562 L 8.5 -11.683594 L 8.191406 -12.414062 L 8.019531 -12.703125 L 7.90625 -13.066406 L 7.558594 -13.429688 L 6.90625 -13.601562 L 6.292969 -13.410156 L 5.929688 -13.066406 L 5.8125 -12.722656 L 4.988281 -10.992188 L 4.777344 -10.648438 L 3.703125 -8.230469 L 3.605469 -7.90625 L 3.394531 -7.558594 L 3.089844 -6.867188 L 2.800781 -6.371094 L 2.667969 -6.003906 L 2.398438 -5.507812 L 2.285156 -5.105469 L 2.109375 -4.796875 L 1.976562 -4.414062 L 1.4375 -3.414062 L 0.882812 -2.015625 L 0.652344 -1.707031 L 0.480469 -1.324219 Z M 6.179688 -4.738281 L 5.8125 -4.894531 L 5.757812 -5.277344 L 6.523438 -7.023438 L 6.695312 -7.328125 L 6.945312 -7.519531 L 7.175781 -7.367188 L 7.425781 -6.621094 L 7.636719 -6.292969 L 7.714844 -5.984375 L 7.90625 -5.601562 L 8.039062 -5.257812 L 8 -4.910156 L 7.675781 -4.757812 Z M 6.179688 -4.738281 "/></g></g></g><g fill="#ffffff" fill-opacity="1"><g transform="translate(233.679256, 66.421923)"><g><path d="M 1.476562 -0.613281 L 1.613281 -0.191406 L 1.996094 0 L 2.359375 0.0195312 L 3.148438 -0.0390625 L 3.550781 0 L 4.125 0 L 4.71875 -0.191406 L 4.855469 -0.554688 L 4.894531 -0.960938 L 4.816406 -1.363281 L 4.875 -2.1875 L 4.835938 -3.375 L 5.007812 -3.761719 L 5.390625 -3.953125 L 5.738281 -3.953125 L 6.082031 -3.972656 L 6.5625 -3.816406 L 6.867188 -3.492188 L 7.367188 -2.820312 L 7.503906 -2.457031 L 8.039062 -1.496094 L 8.289062 -1.132812 L 8.460938 -0.804688 L 8.691406 -0.5 L 9.074219 -0.152344 L 9.554688 -0.0390625 L 10.246094 0 L 10.667969 -0.0390625 L 11.050781 0 L 11.820312 0 L 12.242188 -0.0390625 L 12.644531 -0.132812 L 12.722656 -0.539062 L 12.472656 -1.015625 L 11.855469 -1.957031 L 11.683594 -2.285156 L 11.453125 -2.628906 L 11.261719 -2.972656 L 11.011719 -3.28125 L 10.4375 -4.277344 L 10.378906 -4.738281 L 10.589844 -5.140625 L 11.128906 -5.660156 L 11.359375 -5.984375 L 11.492188 -6.351562 L 11.703125 -6.695312 L 11.839844 -7.023438 L 12.050781 -7.75 L 12.070312 -9.265625 L 11.972656 -9.632812 L 11.914062 -9.996094 L 11.820312 -10.378906 L 11.300781 -11.433594 L 11.03125 -11.722656 L 10.859375 -12.011719 L 9.898438 -12.738281 L 9.230469 -13.085938 L 7.636719 -13.410156 L 7.15625 -13.449219 L 6.601562 -13.429688 L 6.179688 -13.449219 L 5.792969 -13.410156 L 5.371094 -13.449219 L 5.046875 -13.410156 L 3.894531 -13.449219 L 3.53125 -13.390625 L 2.742188 -13.46875 L 2.378906 -13.410156 L 1.957031 -13.429688 L 1.59375 -13.257812 L 1.4375 -12.855469 L 1.382812 -7.484375 L 1.4375 -6.925781 L 1.4375 -5.96875 L 1.402344 -5.5625 L 1.382812 -4.835938 L 1.4375 -4.414062 L 1.382812 -3.625 L 1.457031 -2.511719 L 1.417969 -2.109375 Z M 5.390625 -7.0625 L 5.066406 -7.234375 L 4.875 -7.636719 L 4.816406 -9.785156 L 5.046875 -10.167969 L 5.429688 -10.359375 L 5.738281 -10.378906 L 6.792969 -10.359375 L 7.675781 -10.246094 L 8.269531 -9.882812 L 8.460938 -9.59375 L 8.59375 -9.285156 L 8.632812 -8.730469 L 8.578125 -8.210938 L 8.421875 -7.828125 L 8.210938 -7.503906 L 7.980469 -7.273438 L 7.695312 -7.136719 L 6.199219 -7.003906 L 5.8125 -7.0625 Z M 5.390625 -7.0625 "/></g></g></g><g fill="#ffffff" fill-opacity="1"><g transform="translate(247.262093, 66.421923)"><g><path d="M 6.351562 -8.441406 L 6.445312 -8.171875 L 6.714844 -8 L 7.117188 -8.039062 L 7.539062 -7.980469 L 7.769531 -8.019531 L 8.019531 -8.019531 L 8.347656 -8.136719 L 8.460938 -8.421875 L 8.421875 -8.730469 L 8.441406 -9.035156 L 8.421875 -9.34375 L 8.539062 -9.496094 L 8.75 -9.476562 L 9.054688 -9.09375 L 9.285156 -8.941406 L 9.515625 -8.960938 L 9.957031 -9.285156 L 10.148438 -9.476562 L 10.285156 -9.496094 L 10.398438 -9.304688 L 10.4375 -9 L 10.378906 -8.75 L 10.417969 -8.480469 L 10.550781 -8.15625 L 10.820312 -8 L 11.320312 -8 L 11.609375 -8.058594 L 11.894531 -8.039062 L 12.125 -8.058594 L 12.453125 -8.15625 L 12.546875 -8.367188 L 12.585938 -8.824219 L 12.527344 -9.210938 L 12.527344 -9.6875 L 12.566406 -9.917969 L 12.546875 -10.820312 L 12.585938 -11.222656 L 12.585938 -11.933594 L 12.546875 -12.183594 L 12.585938 -12.949219 L 12.433594 -13.21875 L 12.183594 -13.410156 L 11.933594 -13.390625 L 11.550781 -13.277344 L 11.242188 -13.085938 L 11.011719 -12.933594 L 10.839844 -12.722656 L 10.496094 -12.453125 L 10.074219 -11.992188 L 9.917969 -11.875 L 9.707031 -11.628906 L 9.460938 -11.550781 L 9.152344 -11.664062 L 8.941406 -11.875 L 8.691406 -12.183594 L 8.210938 -12.625 L 8 -12.757812 L 7.847656 -12.933594 L 7.347656 -13.316406 L 6.714844 -13.449219 L 6.464844 -13.316406 L 6.332031 -12.835938 L 6.351562 -12.605469 L 6.273438 -11.953125 L 6.3125 -11.644531 L 6.292969 -10.667969 L 6.3125 -10.457031 L 6.3125 -8.710938 Z M 2.054688 -8.578125 L 2.167969 -8.15625 L 2.476562 -8.039062 L 2.742188 -8.058594 L 2.992188 -8 L 3.222656 -8.039062 L 3.816406 -8.058594 L 4.066406 -8.117188 L 4.222656 -8.402344 L 4.222656 -8.980469 L 4.183594 -9.191406 L 4.203125 -9.996094 L 4.164062 -10.265625 L 4.242188 -10.957031 L 4.335938 -11.339844 L 4.777344 -11.472656 L 5.160156 -11.453125 L 5.449219 -11.589844 L 5.601562 -11.875 L 5.621094 -12.183594 L 5.601562 -12.453125 L 5.621094 -12.933594 L 5.46875 -13.257812 L 5.066406 -13.390625 L 4.453125 -13.390625 L 4.144531 -13.429688 L 3.800781 -13.375 L 3.109375 -13.390625 L 2.878906 -13.429688 L 2.589844 -13.375 L 2.359375 -13.429688 L 2.070312 -13.410156 L 1.804688 -13.429688 L 1.535156 -13.375 L 1.152344 -13.410156 L 0.765625 -13.277344 L 0.632812 -12.988281 L 0.613281 -12.703125 L 0.671875 -12.183594 L 0.613281 -11.894531 L 0.75 -11.570312 L 1.035156 -11.492188 L 1.476562 -11.453125 L 1.917969 -11.378906 L 2.035156 -11.089844 L 2.070312 -10.800781 L 2.035156 -10.496094 L 2.054688 -9.535156 L 2.035156 -9.265625 L 2.070312 -8.960938 Z M 2.054688 -8.578125 "/></g></g></g></svg>