<svg xmlns="http://www.w3.org/2000/svg" xmlns:xlink="http://www.w3.org/1999/xlink" width="40" zoomAndPan="magnify" viewBox="0 0 30 30.000001" height="40" preserveAspectRatio="xMidYMid meet" version="1.0"><defs><clipPath id="e064323dc6"><path d="M 0.484375 0 L 29.515625 0 L 29.515625 29.03125 L 0.484375 29.03125 Z M 0.484375 0 " clip-rule="nonzero"/></clipPath><clipPath id="56a6594e36"><path d="M 8.539062 8.054688 L 21.605469 8.054688 L 21.605469 21 L 8.539062 21 Z M 8.539062 8.054688 " clip-rule="nonzero"/></clipPath></defs><g clip-path="url(#e064323dc6)"><path fill="#ffffff" d="M 0.484375 0 L 29.515625 0 L 29.515625 29.03125 L 0.484375 29.03125 Z M 0.484375 0 " fill-opacity="1" fill-rule="nonzero"/><path fill="#ff7d95" d="M 0.484375 0 L 29.515625 0 L 29.515625 29.03125 L 0.484375 29.03125 Z M 0.484375 0 " fill-opacity="1" fill-rule="nonzero"/></g><g clip-path="url(#56a6594e36)"><path fill="#892739" d="M 10.960938 20.972656 L 8.546875 18.558594 L 19.050781 8.054688 L 21.464844 10.46875 L 10.960938 20.972656 " fill-opacity="1" fill-rule="nonzero"/><path fill="#892739" d="M 19.050781 20.972656 L 21.464844 18.558594 L 10.960938 8.054688 L 8.546875 10.46875 L 19.050781 20.972656 " fill-opacity="1" fill-rule="nonzero"/></g></svg>