<svg xmlns="http://www.w3.org/2000/svg" xmlns:xlink="http://www.w3.org/1999/xlink" width="80" zoomAndPan="magnify" viewBox="0 0 60 60" height="80" preserveAspectRatio="xMidYMid meet" version="1.0"><defs><g/></defs><g fill="#f6ca83" fill-opacity="1"><g transform="translate(-3.253207, 46.84981)"><g><path d="M 3.871094 -2.117188 L 4.386719 -0.515625 L 5.882812 0.15625 L 6.914062 0 L 8.566406 0.15625 L 9.394531 0.0507812 L 10.941406 0.0507812 L 12.59375 -0.464844 L 13.058594 -1.960938 L 13.058594 -3.714844 L 13.160156 -4.644531 L 13.003906 -5.730469 L 13.109375 -9.03125 L 13.574219 -10.0625 L 14.554688 -10.632812 L 17.546875 -10.21875 L 18.578125 -9.339844 L 19.199219 -8.308594 L 19.609375 -7.378906 L 20.695312 -5.832031 L 21.675781 -3.972656 L 22.242188 -3.199219 L 22.65625 -2.167969 L 23.222656 -1.289062 L 24.359375 -0.359375 L 26.113281 0.101562 L 30.191406 0.0507812 L 31.171875 0.15625 L 32.875 0.101562 L 33.855469 -0.359375 L 34.164062 -1.496094 L 33.597656 -2.632812 L 32.976562 -3.355469 L 32.566406 -4.335938 L 30.808594 -6.96875 L 30.347656 -7.894531 L 28.695312 -10.578125 L 28.074219 -11.355469 L 28.023438 -12.59375 L 28.488281 -13.726562 L 29.210938 -14.503906 L 29.933594 -15.121094 L 31.945312 -18.734375 L 32.617188 -21.726562 L 32.511719 -24.980469 L 32.359375 -26.011719 L 31.429688 -28.953125 L 31.015625 -29.828125 L 30.449219 -30.65625 L 27.507812 -33.753906 L 25.699219 -34.734375 L 23.738281 -35.402344 L 20.796875 -36.074219 L 19.148438 -36.125 L 17.648438 -36.023438 L 14.554688 -36.023438 L 13.519531 -36.230469 L 12.488281 -36.230469 L 11.558594 -35.972656 L 10.527344 -35.972656 L 9.496094 -36.175781 L 8.359375 -36.230469 L 5.316406 -35.972656 L 4.386719 -35.457031 L 3.765625 -34.011719 L 3.820312 -22.191406 L 3.921875 -21.160156 L 3.765625 -19.09375 L 3.820312 -17.960938 L 3.820312 -16.925781 L 3.921875 -15.945312 L 3.820312 -14.964844 L 3.765625 -10.785156 L 3.871094 -9.753906 Z M 14.554688 -18.890625 L 13.519531 -19.457031 L 13.109375 -20.28125 L 13.109375 -23.378906 L 13.003906 -24.257812 L 13.109375 -26.421875 L 13.574219 -27.402344 L 14.65625 -27.816406 L 15.6875 -27.765625 L 17.753906 -27.972656 L 19.199219 -27.664062 L 20.539062 -27.558594 L 21.519531 -27.300781 L 22.8125 -25.699219 L 23.121094 -24.875 L 23.328125 -23.535156 L 23.171875 -21.984375 L 22.707031 -20.953125 L 22.140625 -20.179688 L 21.574219 -19.714844 L 20.644531 -19.300781 L 19.148438 -18.941406 L 18.167969 -18.890625 L 15.6875 -18.992188 Z M 14.554688 -18.890625 "/></g></g></g><g fill="#21897e" fill-opacity="1"><g transform="translate(28.32765, 46.84981)"><g><path d="M 13.882812 0.464844 L 17.960938 0.566406 L 18.992188 0.464844 L 20.023438 0.207031 L 21.054688 0.0507812 L 22.089844 -0.359375 L 23.015625 -0.464844 L 23.996094 -0.929688 L 27.507812 -3.042969 L 29.003906 -4.59375 L 29.519531 -5.316406 L 30.085938 -6.449219 L 30.398438 -7.378906 L 30.707031 -8.257812 L 31.015625 -10.835938 L 30.914062 -12.488281 L 30.140625 -15.484375 L 29.570312 -16.308594 L 28.230469 -17.855469 L 27.300781 -18.683594 L 26.476562 -19.09375 L 25.546875 -19.664062 L 21.519531 -20.902344 L 20.488281 -21.054688 L 19.457031 -21.109375 L 18.371094 -21.3125 L 16.875 -21.3125 L 14.140625 -21.882812 L 12.230469 -22.8125 L 11.457031 -23.535156 L 11.25 -25.082031 L 11.507812 -26.476562 L 12.128906 -27.144531 L 12.902344 -27.714844 L 13.726562 -28.179688 L 14.65625 -28.382812 L 16.308594 -28.4375 L 17.960938 -28.230469 L 18.890625 -27.972656 L 19.816406 -27.351562 L 20.695312 -26.628906 L 21.46875 -25.597656 L 22.605469 -24.925781 L 25.03125 -25.132812 L 26.421875 -25.03125 L 27.457031 -25.03125 L 28.382812 -24.925781 L 29.367188 -25.648438 L 29.777344 -26.527344 L 29.570312 -27.507812 L 29.46875 -28.488281 L 28.023438 -31.171875 L 26.886719 -32.71875 L 23.480469 -35.09375 L 20.59375 -36.074219 L 18.578125 -36.488281 L 14.605469 -36.589844 L 13.46875 -36.28125 L 12.4375 -36.230469 L 11.507812 -36.074219 L 9.546875 -35.457031 L 7.792969 -34.421875 L 5.316406 -32.71875 L 3.507812 -30.292969 L 2.582031 -27.457031 L 2.425781 -24.925781 L 2.476562 -23.328125 L 2.839844 -21.261719 L 3.664062 -19.457031 L 5.574219 -17.082031 L 9.082031 -15.171875 L 10.941406 -14.554688 L 19.042969 -13.625 L 20.902344 -12.746094 L 21.574219 -12.128906 L 21.882812 -10.835938 L 21.46875 -9.546875 L 20.796875 -8.773438 L 19.042969 -8 L 17.445312 -7.894531 L 16.515625 -7.742188 L 13.882812 -8 L 13.003906 -8.464844 L 12.128906 -9.03125 L 10.425781 -10.890625 L 9.394531 -11.300781 L 8.464844 -11.199219 L 7.484375 -11.355469 L 3.507812 -11.148438 L 2.582031 -10.734375 L 2.167969 -9.652344 L 2.324219 -8.617188 L 2.527344 -7.585938 L 2.839844 -6.65625 L 3.820312 -4.746094 L 4.542969 -4.078125 L 5.210938 -3.304688 L 7.019531 -2.167969 L 7.742188 -1.394531 L 8.722656 -0.929688 L 9.753906 -0.621094 L 11.765625 0.101562 Z M 13.882812 0.464844 "/></g></g></g></svg>