<svg xmlns="http://www.w3.org/2000/svg" xmlns:xlink="http://www.w3.org/1999/xlink" width="80" zoomAndPan="magnify" viewBox="0 0 60 60" height="80" preserveAspectRatio="xMidYMid meet" version="1.0"><path fill="#333333" d="M 30 0 C 46.542969 0 60 13.457031 60 30 C 60 46.542969 46.542969 60 30 60 C 13.457031 60 0 46.542969 0 30 C 0 13.457031 13.457031 0 30 0 Z M 30 56 C 44.335938 56 56 44.335938 56 30 C 56 15.664062 44.335938 4 30 4 C 15.664062 4 4 15.664062 4 30 C 4 44.335938 15.664062 56 30 56 Z M 30 56 " fill-opacity="1" fill-rule="nonzero"/><path fill="#333333" d="M 33.089844 16.652344 C 33.871094 15.871094 35.136719 15.871094 35.917969 16.652344 C 36.699219 17.433594 36.699219 18.699219 35.917969 19.480469 L 25.398438 30 L 35.917969 40.519531 C 36.699219 41.300781 36.699219 42.566406 35.917969 43.347656 C 35.527344 43.738281 35.015625 43.933594 34.503906 43.933594 C 33.992188 43.933594 33.480469 43.738281 33.089844 43.347656 L 21.15625 31.414062 C 20.375 30.632812 20.375 29.367188 21.15625 28.585938 Z M 33.089844 16.652344 " fill-opacity="1" fill-rule="nonzero"/></svg>