<svg xmlns="http://www.w3.org/2000/svg" xmlns:xlink="http://www.w3.org/1999/xlink" width="80" zoomAndPan="magnify" viewBox="0 0 60 60" height="80" preserveAspectRatio="xMidYMid meet" version="1.0"><defs><clipPath id="a2c51e6002"><path d="M 2.894531 2.894531 L 58.335938 2.894531 L 58.335938 58.335938 L 2.894531 58.335938 Z M 2.894531 2.894531 " clip-rule="nonzero"/></clipPath><clipPath id="6c93e7206e"><path d="M 30.613281 2.894531 C 15.304688 2.894531 2.894531 15.304688 2.894531 30.613281 C 2.894531 45.921875 15.304688 58.335938 30.613281 58.335938 C 45.921875 58.335938 58.335938 45.921875 58.335938 30.613281 C 58.335938 15.304688 45.921875 2.894531 30.613281 2.894531 Z M 30.613281 2.894531 " clip-rule="nonzero"/></clipPath></defs><g clip-path="url(#a2c51e6002)"><g clip-path="url(#6c93e7206e)"><path fill="#f9f9f9" d="M 2.894531 2.894531 L 58.335938 2.894531 L 58.335938 58.335938 L 2.894531 58.335938 Z M 2.894531 2.894531 " fill-opacity="1" fill-rule="nonzero"/></g></g><path fill="#333333" d="M 30 0 C 13.457031 0 0 13.457031 0 30 C 0 46.542969 13.457031 60 30 60 C 46.542969 60 60 46.542969 60 30 C 60 13.457031 46.542969 0 30 0 Z M 30 56 C 15.664062 56 4 44.335938 4 30 C 4 15.664062 15.664062 4 30 4 C 44.335938 4 56 15.664062 56 30 C 56 44.335938 44.335938 56 30 56 Z M 30 56 " fill-opacity="1" fill-rule="nonzero"/><path fill="#333333" d="M 26.910156 16.652344 C 26.128906 15.871094 24.863281 15.871094 24.082031 16.652344 C 23.300781 17.433594 23.300781 18.699219 24.082031 19.480469 L 34.601562 30 L 24.082031 40.519531 C 23.300781 41.300781 23.300781 42.566406 24.082031 43.347656 C 24.472656 43.738281 24.984375 43.933594 25.496094 43.933594 C 26.007812 43.933594 26.519531 43.738281 26.910156 43.347656 L 38.84375 31.414062 C 39.625 30.632812 39.625 29.367188 38.84375 28.585938 Z M 26.910156 16.652344 " fill-opacity="1" fill-rule="nonzero"/></svg>